<svg id="图层_1" data-name="图层 1" xmlns="http://www.w3.org/2000/svg" viewBox="0 0 1024 1024"><title>pps</title><path d="M307.557,301.744c48.56-.9,87.432,19.564,123.488,46.907a304.971,304.971,0,0,1,46.512,43.408c4.145,4.793,5.634,3.4,8.36-.881,10.071-15.8,15.757-33.577,23.284-50.524,4.2-9.452,8.286-18.994,13.189-28.082,6.895-12.78,16.124-13.958,26.821-3.974,17.219,16.071,25.189,37.888,36.412,57.791,17.918,31.777,35.108,64.618,68.7,83.548,16.6,9.356,35.369,12.715,53.615,16.982,48.011,11.226,96.225,21.58,144.287,32.6,7.247,1.661,14.274,4.628,21.113,7.648,12.572,5.552,15.991,13.475,12.209,26.608a98.576,98.576,0,0,1-20.835,38.074c-38.314,43.53-82.109,79.061-139.318,95.322-18.42,5.236-36.882,5.244-55.555,4.714-4.918-.14-8.218.6-11.871,4.884-10.3,12.07-25.536,14.544-39.961,15.251-49.379,2.422-98.665.263-147.006-10.881-24.787-5.715-49.315-13.413-68.345-31.843-5-4.847-6.572-.447-9.315,1.947-25.508,22.261-52.124,43.06-80.955,60.892-6.709,4.149-13.575,8.309-21.435,9.784C280.9,723.8,277,719.4,278.78,709.636c4.182-22.9,11.587-44.874,18.8-66.9,1.169-3.571,3.373-5.693-2.759-7.348-40.008-10.795-71.981-35.9-105.525-58.711-34.585-23.519-40.086-59.863-47.951-95.848-5.685-26.008-7.162-51.812,4.057-76.846,15.43-34.432,41.579-54.17,79.722-56.154,7.609-.4,11.344-.933,13.383-10.008,4.428-19.708,20.4-28.333,38.471-33.114C287.439,301.938,298.283,301.418,307.557,301.744Z" style="fill:#fff"/><path d="M500.894,568.317c-9.906,11.855-10.572,25.7-9.832,39.4.3,5.611,6.725,6.524,11.95,6.857,12.058.768,23.412-2.325,34.667-6.088,5.805-1.941,9.587-1.823,8.658,6.366-.722,6.357-.6,12.985,2.5,19.048,4.8,9.389,12.2,11.621,21.29,6.118,4.294-2.6,8.3-5.675,12.52-8.4,7.205-4.654,11.266-1.544,13.533,5.679.635,2.022,1.045,4.128,1.829,6.087,7.072,17.689,11.584,19.437,28.015,10.959,9.2-4.748,14.41-2.5,18.12,7.032,1.728,4.44-1.723,4.783-3.76,6.231-9.742,6.921-21.384,8.819-32.586,9.158-32.751.992-65.331-1.947-97.759-6.858-29.519-4.47-57.434-14.176-84.821-25.435-8.609-3.539-19.722-1.607-25.573-12.729-1.987-3.778-9.26.092-13.4,3.159q-43.293,32.113-86.559,64.264a15.171,15.171,0,0,1-2.3,1.247c-2.2.17-2.329-1.349-2.162-2.139,4.14-19.547,11-38.3,16.8-57.36.9-2.956,3.071-2.44,4.832-3.295,3.819-1.853,6.184-6.216,3.887-8.741-5.838-6.418-1.825-12.446-.68-18.448,1.244-6.518-.465-10.587-7.032-12.067-8.556-1.927-5.035,5.835-6.739,9.085-1.587,3.028-1.559,6.935-2.084,10.478-.6,4.077-2.9,4.149-6.208,3.19-45.138-13.1-87.025-31.969-115.62-71.294-25.532-35.112-36.622-75.2-27.7-117.836,8.48-40.551,42.634-67.489,83.805-67.2,16.5.117,33.5-3.023,50.1,2.1,9.148,2.82,17.546,5.27,22.13,14.9,2.714,5.7,7.887,9.17,14.717,9.431,5.181.2,8.366-2.923,9.754-7,1.378-4.047-3.232-4.768-5.719-6.133-21.012-11.536-42.713-21.64-66.232-26.733-8.607-1.864-8.569-4.982-5.091-11.417,7.807-14.445,21.289-18.378,36.028-19.651,43.651-3.768,81.484,11.277,116.531,35.915,20.789,14.614,36.551,34.661,56.287,50.376,19.859,15.814,23.448,15.358,33.913-8.043,8.44-18.872,15.805-38.221,23.805-57.292,2.066-4.924,4.674-9.625,7.131-14.377,2.83-5.475,5.1-6.315,9.83-.766,20.156,23.634,37.272,49.673,49.175,77.85,18.466,43.712,52.679,63.954,95.472,76.545,41.519,12.215,83.956,19.933,126,29.607,16.675,3.837,33.557,6.795,49.682,12.847,3.521,1.321,6.175,1.629,3.642,6.325-13.751,25.495-25.228,52.524-49.022,71.091-20.895,16.306-44.992,25.846-69.95,33.881-26.285,8.464-53.364,13.277-80.284,18.908-5.323,1.114-9.088-.437-11.452-5.254-1.249-2.544-2.09-5.3-3.425-7.79-6.36-11.877-10.324-13.111-22.406-7-23.04,11.662-17.193,10.834-21.882-12.945-2.048-10.388-5.374-13.2-15.494-8.974a222.638,222.638,0,0,0-22.388,10.292c-7.211,4-8.018.5-7.741-5.388.017-.36-.024-.721-.034-1.082-.754-25.959-6.586-30.154-32.444-22.7a116.386,116.386,0,0,0-18.843,7.36c-7.923,3.88-9.569.356-9.419-6.722C501.028,584.738,500.894,576.526,500.894,568.317Z" style="fill:#010101"/><path d="M559.411,551.716c.248-10.7,5.376-16.676,14.193-16.531,10.511.173,14.275,4.428,13.928,15.827-.257,8.413-3.157,15.136-12.725,15.365C564.858,566.614,559.2,560.766,559.411,551.716Z" style="fill:#fdfdfd"/></svg>